<svg id="34ed6b69-3f66-4838-aa31-3e11bc1c253f" data-name="Ebene 1" xmlns="http://www.w3.org/2000/svg" width="2181.31" height="1141.28" viewBox="0 0 2181.31 1141.28">
  <defs>
    <style>
      .b071e0bf-6002-4fb1-817a-887691aa4920 {
        fill: none;
        stroke: #000;
        stroke-miterlimit: 10;
      }

      .\30 448f4ce-c481-4341-8f66-09667083a42d {
        font-size: 12px;
        font-family: MyriadPro-Regular, Myriad Pro;
      }
    </style>
  </defs>
  <title>landscape_3</title>
  <polygon class="b071e0bf-6002-4fb1-817a-887691aa4920" points="0.5 238.5 62.5 1140.5 330.5 1008.5 394.5 378.5 492.5 436.5 512.5 568.5 636.5 482.5 652.5 636.5 570.5 746.5 644.5 942.5 736.5 1084.5 900.5 966.5 1062.5 1090.5 1102.5 740.5 1184.5 344.5 1304.5 466.5 1340.5 972.5 1388.5 1040.5 1462.5 1088.5 1577.5 1122 1706.5 104.5 1654.5 0.5 16.5 22.5 0.5 238.5"/>
  <text class="0448f4ce-c481-4341-8f66-09667083a42d" transform="translate(1985.5 539.93)">-8,-758.5<tspan x="0" y="14.4">314,-758.5</tspan><tspan x="0" y="28.8">455.037037037036,-406.935185185182</tspan><tspan x="0" y="43.2">551.333333333333,-751.5</tspan><tspan x="0" y="57.6">1288,-751.5</tspan><tspan x="0" y="72">1458.74074074074,-418.046296296294</tspan><tspan x="0" y="86.4">1547.62962962963,-751.5</tspan><tspan x="0" y="100.8">1907,-751.5</tspan></text>
  <path class="b071e0bf-6002-4fb1-817a-887691aa4920" d="M58,976" transform="translate(76.5 124.5)"/>
</svg>
