<?xml version="1.0" encoding="utf-8"?>
<!-- Generator: Adobe Illustrator 22.0.1, SVG Export Plug-In . SVG Version: 6.00 Build 0)  -->
<svg version="1.1" id="Ebene_1" xmlns="http://www.w3.org/2000/svg" xmlns:xlink="http://www.w3.org/1999/xlink" x="0px" y="0px"
	 viewBox="0 0 1920 1080" style="enable-background:new 0 0 1920 1080;" xml:space="preserve">
<style type="text/css">
	.st0{fill:none;stroke:#000000;stroke-miterlimit:10;}
	.st1{fill:#FFFFFF;}
</style>
<g id="D4ZQ6n.tif">
	<g>
		<g>
			<path class="st0" d="M-262,689c0-229.3,0-608.7,0-838c640,0,1825,0,2465,0c0,229.3,14,608.7,14,838c-19.5,0-336,0-355.7,0
				c-0.2,1.2-0.3,2.3-0.7,3.4c-6.6,18.6-13.2,37.2-19.6,55.9c-1,2.9-2.3,3.7-5.2,3.7c-8.8-0.2-17.6-0.1-26.3-0.1
				c-0.7,2.4-1.1,4.5-1.8,6.5c-7,19.2-14.3,38.2-21.1,57.5c-1.2,3.4-2.8,4.1-6.1,4.1c-12.6-0.2-25.3-0.1-38.2-0.1
				c-8.5,24.5-16.9,48.8-25.3,73.1c-11,0-22,0-33,0c-1-3.6-1.9-7.2-2.9-10.8c-10.7-37.2-21.3-74.3-32.1-111.5
				c-9-30.9-18.2-61.6-27.1-92.5c-1.3-4.4-3.1-5.6-7.5-5.4c-8.9,0.4-17.9,0.1-27.1,0.1c-9.1-62.9-18.1-125.4-27.1-188.1
				c-12.5,0-24.1,0-35.9,0c-0.8-7.9-1.4-15.4-2.3-22.9c-1.5-12.4-3.3-24.7-4.9-37c-1.5-11.9-2.7-23.8-4.1-35.7
				c-1.6-12.7-3.3-25.4-4.9-38c-1.1-9.3-1.9-18.6-3.2-27.9c-0.2-1.2-2-2.7-3.4-3.1c-2-0.5-4.3-0.1-6.5-0.1c-8.3,0-16.5,0-24.7,0
				c-0.5-5.8-0.8-10.9-1.4-16c-1.2-10.3-2.6-20.5-3.9-30.7c-1-8-2-15.9-2.9-23.9c-1.1-9.5-2.1-18.9-3.1-28.4c-1.1-10-2-20-3.1-29.9
				c-1.2-10.4-2.8-20.8-3.8-31.3c-0.3-3.7-1.5-4.8-5.1-4.8c-11.5,0.2-23,0.2-34.5,0c-3.4-0.1-4.7,1.3-5.4,4.3
				c-8.1,30.9-16.2,61.9-24.4,92.8c-3.4,13-7,26-10.5,39.1c-13.3,0-26.1,0-39.1,0c-1.5,6.7-3,13.2-4.4,19.7
				c-5.4,25.7-10.6,51.5-16.1,77.2c-4.8,22.3-10.1,44.6-14.6,67c-0.9,4.7-2.6,5.1-6.4,5.1c-13.2-0.1-26.3,0-39.5-0.1
				c-3.1,0-4.7,0.3-5.7,4.2c-4.2,15.6-9.1,31-13.7,46.4c-3,10.2-6.2,20.3-8.9,30.5c-0.8,2.9-1.9,4-5,3.9c-11.7-0.2-23.3,0-35-0.1
				c-2.7,0-4.3,0.6-5.1,3.3c-3.3,11.1-6.7,22.2-10,33.3c-5.4,17.8-10.8,35.5-16.2,53.4c-14.4,0-28.4-0.1-42.4,0.1
				c-1.7,0-4.5,1.1-5,2.4c-6.6,15.5-13,31-19.3,46.6c-7.2,17.5-14.3,35.1-21.5,52.6c-0.4,0.9-1.5,2.1-2.2,2.1
				c-7.6,0.2-15.2,0.1-22.9,0.1c-0.8-10.3-1.4-20-2.3-29.7c-1.2-12.6-2.6-25.2-3.9-37.8c-0.8-8.2-1.3-16.4-2.2-24.6
				c-1.2-11.9-2.9-23.8-3.7-35.8c-0.3-4.7-1.3-6.3-6.2-6.3c-41.3,0.2-82.7,0.1-124,0.1c-1.6,0-3.2,0.2-4.7,0.2
				c-4.3,44.7-8.6,89-12.9,133.8c-7.4,0-14.7,0.1-22-0.1c-1.1,0-2.6-1.3-3.1-2.4c-4.1-9.6-8.1-19.3-12-29
				c-9.9-24.1-19.8-48.3-29.7-72.5c-14.4,0-28.4-0.1-42.4,0.1c-2.8,0-4.4-0.6-5.3-3.6c-2.4-8.6-5.3-17.1-7.8-25.7
				c-5.7-18.9-11.4-37.8-16.9-56.8c-0.9-3.2-2.5-4-5.6-4c-12.7,0.1-25.3,0.1-38.4,0.1c-8.3-28.2-16.6-56.4-25.1-85c-1.4,0-3.2,0-5,0
				c-13.5,0-27,0.1-40.5-0.1c-1.5,0-3.9-1.2-4.4-2.4c-1.2-3-1.5-6.3-2.2-9.5c-4.6-21.7-9.1-43.5-13.7-65.2
				c-4.1-19.5-8.2-39-12.4-58.5c-2.4-11.1-5-22.2-7.5-33.4c-13.2,0-26.1,0-39.2,0c-6.8-25.7-13.6-51.2-20.3-76.7
				c-4.8-18.3-9.6-36.6-14.3-54.9c-0.8-3.2-2.3-4.6-5.9-4.4c-7.5,0.3-15,0.1-22.5,0.1c-5.4,0-10.9,0-15.9,0
				c-6.4,55.4-12.7,110-19.1,165.1c-11.5,0-22.9,0-33.9,0c-6.7,55.3-13.3,110-20,165c-12.1,0-23.7,0-35.8,0
				c-9,62.8-18,125.3-27.1,187.9c-10.1,0-19.6-0.1-29.1,0.1c-1.6,0-4.2,1.2-4.5,2.4c-7.2,23.7-14.2,47.5-21.1,71.4
				c-8.8,30.6-17.6,61.2-26.3,91.7c-5.2,18.2-10.4,36.3-15.6,54.5c-11,0-22,0-33,0c-8.4-24.3-16.8-48.7-25.2-73.1
				c-13.2,0-26-0.1-38.8,0c-2.8,0-4.2-0.6-5.3-3.7c-7.6-21.5-15.6-42.8-23.5-64.4c-8.8,0-17.6,0.1-26.4-0.1c-1.5,0-3.9-1.3-4.4-2.6
				c-7.1-19.9-14-40-21.1-60.2C38.3,689-242.9,689-262,689z"/>
			<path class="st1" d="M235,893c5.2-18.2,10.4-36.3,15.6-54.5c8.8-30.6,17.5-61.2,26.3-91.7c6.9-23.8,13.9-47.6,21.1-71.4
				c0.4-1.2,2.9-2.4,4.5-2.4c9.5-0.2,19-0.1,29.1-0.1c9-62.6,18-125.1,27.1-187.9c12.1,0,23.7,0,35.8,0c6.7-55,13.3-109.7,20-165
				c11,0,22.4,0,33.9,0c6.4-55.2,12.7-109.8,19.1-165.1c5,0,10.5,0,15.9,0c7.5,0,15,0.2,22.5-0.1c3.6-0.1,5,1.2,5.9,4.4
				c4.7,18.3,9.5,36.6,14.3,54.9c6.7,25.5,13.5,51,20.3,76.7c13.1,0,25.9,0,39.2,0c2.5,11.2,5.1,22.3,7.5,33.4
				c4.2,19.5,8.3,39,12.4,58.5c4.6,21.7,9.1,43.5,13.7,65.2c0.7,3.2,1,6.5,2.2,9.5c0.5,1.2,2.9,2.4,4.4,2.4
				c13.5,0.2,27,0.1,40.5,0.1c1.8,0,3.6,0,5,0c8.4,28.6,16.7,56.8,25.1,85c13.1,0,25.7,0.1,38.4-0.1c3.1,0,4.6,0.8,5.6,4
				c5.5,19,11.2,37.9,16.9,56.8c2.6,8.6,5.4,17.1,7.8,25.7c0.9,3.1,2.4,3.7,5.3,3.6c14-0.1,28-0.1,42.4-0.1
				c9.9,24.2,19.8,48.4,29.7,72.5c4,9.7,7.9,19.4,12,29c0.5,1.1,2,2.4,3.1,2.4c7.3,0.2,14.6,0.1,22,0.1c4.3-44.7,8.6-89,12.9-133.8
				c1.5-0.1,3.1-0.2,4.7-0.2c41.3,0,82.7,0.1,124-0.1c4.9,0,5.9,1.6,6.2,6.3c0.8,12,2.5,23.8,3.7,35.8c0.8,8.2,1.3,16.4,2.2,24.6
				c1.2,12.6,2.7,25.2,3.9,37.8c0.9,9.7,1.5,19.4,2.3,29.7c7.7,0,15.3,0.1,22.9-0.1c0.8,0,1.9-1.2,2.2-2.1
				c7.2-17.5,14.3-35.1,21.5-52.6c6.4-15.6,12.7-31.2,19.3-46.6c0.6-1.3,3.3-2.4,5-2.4c14-0.2,28-0.1,42.4-0.1
				c5.4-17.9,10.8-35.7,16.2-53.4c3.4-11.1,6.7-22.2,10-33.3c0.8-2.7,2.4-3.4,5.1-3.3c11.7,0.1,23.3,0,35,0.1c3,0,4.2-1,5-3.9
				c2.8-10.2,5.9-20.4,8.9-30.5c4.6-15.5,9.6-30.9,13.7-46.4c1-3.9,2.7-4.2,5.7-4.2c13.2,0.1,26.3-0.1,39.5,0.1
				c3.8,0,5.4-0.4,6.4-5.1c4.4-22.4,9.8-44.6,14.6-67c5.5-25.7,10.7-51.5,16.1-77.2c1.4-6.5,2.9-13,4.4-19.7c13,0,25.8,0,39.1,0
				c3.5-13.1,7.1-26.1,10.5-39.1c8.2-30.9,16.3-61.8,24.4-92.8c0.8-3,2.1-4.4,5.4-4.3c11.5,0.2,23,0.2,34.5,0c3.6-0.1,4.8,1,5.1,4.8
				c0.9,10.4,2.6,20.8,3.8,31.3c1.1,10,2.1,20,3.1,29.9c1,9.5,2,19,3.1,28.4c0.9,8,1.9,16,2.9,23.9c1.3,10.2,2.7,20.5,3.9,30.7
				c0.6,5.1,0.9,10.2,1.4,16c8.2,0,16.4,0,24.7,0c2.2,0,4.4-0.4,6.5,0.1c1.3,0.3,3.2,1.9,3.4,3.1c1.3,9.3,2,18.6,3.2,27.9
				c1.5,12.7,3.3,25.4,4.9,38c1.5,11.9,2.7,23.8,4.1,35.7c1.5,12.4,3.3,24.7,4.9,37c0.9,7.5,1.5,15,2.3,22.9c11.8,0,23.4,0,35.9,0
				c9,62.7,18,125.2,27.1,188.1c9.2,0,18.2,0.3,27.1-0.1c4.4-0.2,6.2,1.1,7.5,5.4c8.8,30.9,18.1,61.7,27.1,92.5
				c10.8,37.1,21.4,74.3,32.1,111.5c1,3.6,1.9,7.2,2.9,10.8C1201,893,718,893,235,893z"/>
			<path class="st1" d="M1717,893c8.4-24.3,16.8-48.6,25.3-73.1c12.9,0,25.6-0.1,38.2,0.1c3.2,0,4.8-0.7,6.1-4.1
				c6.8-19.2,14-38.3,21.1-57.5c0.7-2,1.1-4.1,1.8-6.5c8.7,0,17.5-0.1,26.3,0.1c2.9,0.1,4.2-0.7,5.2-3.7
				c6.4-18.7,13.1-37.3,19.6-55.9c0.4-1,0.4-2.2,0.7-3.4c19.7,0,39.2,0,58.7,0c0,68,0,136,0,204C1852.3,893,1784.7,893,1717,893z"/>
			<path class="st1" d="M0,689c19.1,0,38.3,0,57.3,0c7,20.2,13.9,40.2,21.1,60.2c0.5,1.3,2.9,2.5,4.4,2.6c8.8,0.2,17.6,0.1,26.4,0.1
				c7.9,21.6,15.9,42.9,23.5,64.4c1.1,3.1,2.5,3.7,5.3,3.7c12.8-0.1,25.6,0,38.8,0c8.4,24.5,16.8,48.8,25.2,73.1
				c-67.3,0-134.7,0-202,0C0,825,0,757,0,689z"/>
		</g>
	</g>
</g>
</svg>
